<?xml version="1.0" encoding="utf-8"?>
<!-- Generator: Adobe Illustrator 15.1.0, SVG Export Plug-In . SVG Version: 6.00 Build 0)  -->
<!DOCTYPE svg PUBLIC "-//W3C//DTD SVG 1.1//EN" "http://www.w3.org/Graphics/SVG/1.1/DTD/svg11.dtd">
<svg version="1.1" id="Layer_1" xmlns="http://www.w3.org/2000/svg" xmlns:xlink="http://www.w3.org/1999/xlink" x="0px" y="0px"
	 width="1198.062px" height="1198.062px" viewBox="-235.667 -660.787 1198.062 1198.062"
	 enable-background="new -235.667 -660.787 1198.062 1198.062" xml:space="preserve">
<g opacity="0.1">
	<path fill="#FF9D00" stroke="#FFA300" stroke-miterlimit="10" d="M-26.937,4.591c3.734,6.486,27.406,29.194,27.406,29.194
		s2.992,3.486,7.979,14.959c4.969,11.477,11.195,23.702,11.195,23.702s3.979,15.954,7.469,21.438
		c3.483,5.496,42.865,27.458,42.865,27.458l5.98,11.223c0,0,1.742,2.749,8.712,13.724c6.987,10.971,23.677,26.941,35.139,30.427
		c11.471,3.51,20.452,1.271,20.452,1.271l9.45,4c0,0,6.24,16.454,8.736,22.191c2.482,5.726,13.455,7.243,13.455,7.243l9.208,11.472
		l33.399,23.467l3.738,10.713c0,0,0,0,18.714-5.721c18.69-5.721,17.448-10.712,17.448-10.712l1.505-2.484
		c0,0,29.174-1.979,59.343-21.159C345.439,197.82,434.009,111.11,457.213,89.425C480.416,67.751,604.415-51.11,645.829-88.975
		c41.399-37.878,79.832-75.004,103.279-95.688c23.45-20.667,45.19-78.012,45.19-78.012l-0.993-8.226l-8.986,2.24
		c0,0-15.972,29.415-18.719,35.396c-2.758,5.979-3.002,4.979-20.231,29.407c-17.212,24.421-85.807,80.736-85.807,80.736
		l-8.234,0.986l-3.729-6.473l-2.231-13.223c0,0-18.717,5.725-23.708,6.966l-16.192-1.266l-0.5-6.229c0,0,5.003-5.49,8.726-7.479
		c3.745-1.99-4.729-10.472-4.729-10.472l-37.154,8.213c0,0-23.412-25.955-28.151-32.191c-4.732-6.238-32.158-14.236-36.895-16.236
		c-4.725-1.995-17.7,1.238-17.7,1.238l-59.832-6.261c0,0-18.454-1.763-21.451-1.014c-2.978,0.745-25.688,11.706-25.688,11.706
		s-18.712,1.479-24.686,2.961c-5.99,1.494-28.925,15.695-28.925,15.695l-59.859,14.923l-30.44,18.183l-6.472-0.492
		c0,0-40.386,3.704-45.38,4.949c-4.976,1.243-8.982,6.481-8.982,6.481l-4.743-2l-7.468-0.259l-1.5-10.231
		c0,0,13.976-7.712,21.211-16.942c7.232-9.205,4.75-27.669,7.755-28.412c2.976-0.746,15.464-10.209,15.464-10.209
		s34.399-10.707,38.393-11.708c3.991-0.989,8.745-20.177,8.745-20.177s14.225-6.725,19.213-7.965
		c4.991-1.242,5.731-10.975,5.731-10.975l16.212-2.979c0,0-2.251-8.982-3.739-14.958c-1.495-5.993-20.681-10.729-20.681-10.729
		l-33.66,5.21c0,0-22.437-0.757-35.91,8.953c-13.466,9.712-17.97,25.669-17.97,25.669s-19.462,6.961-33.417,14.688
		c-13.967,7.729-28.935,24.174-28.935,24.174s-11.22,1.732-24.695,11.449c-13.475,9.717-21.955,22.427-21.955,22.427l-13.718,0.232
		l-17.218,20.199c0,0-3.993,0.994-6.723,2.736c-2.742,1.737,2.731,10.97,2.731,10.97l-17.215,28.671c0,0-46.635,12.69-58.121,26.14
		c-11.481,13.438-4.503,24.424-4.503,24.424s-6.75,11.217-4.26,29.666C-41.14-5.631-30.673-1.883-26.937,4.591z M356.796-7.379
		l-12.465-15.966l-13.7-3.991c0,0-2.995-3.499-6.473-13.225c-3.49-9.72-8.715-13.72-8.715-13.72l1.74-5.734
		c0,0,4.742-6.483,9.492-8.713c4.721-2.242,9.973-10.977,9.973-10.977s36.663-10.2,63.084-18.906
		c26.44-8.711,36.903-9.203,36.903-9.203l17.96,12.486l36.659-10.203l49.851,29.956c0,0,14.71,3.744,17.938,4
		c3.243,0.254,28.668,17.219,28.668,17.219L441.524,77.455l-9.476-12.477l-16.204-1.253l-5.476-26.188c0,0-4.482-9.474-7.968-14.96
		c-3.463-5.492-19.431-9.983-19.431-9.983L374-2.13L356.796-7.379z M132.83,76.005l-2.479-9.972c0,0,12.702-4.234,15.951-3.984
		c3.245,0.246,22.437,9.231,22.437,9.231l50.873-12.686l6.738,1.509c0,0,3.972,15.964,7.218,16.214
		c3.228,0.258,6.479,0.502,6.479,0.502l2.242-3.74l-5.726-5.996l-4.492-9.473l13.232-2.231l13.216-10.721l2.254-7.971l3.98-0.995
		c0,0,4.25,4.241,7.482,8.739c3.238,4.481,16.21,5.485,16.21,5.485l12.443,15.971l13.463,3c0,0,6.732,9.976,9.475,12.468
		c2.742,2.494,15.718,3.502,15.718,3.502l4.721,18.954c0,0-0.518,14.958,2.479,14.205c2.989-0.74,7.733-7.222,7.733-7.222
		l14.199-2.483l7.739,9.735l6.221,7.99c0,0-43.155,39.37-65.112,57.548c-21.966,18.187-42.904,27.645-50.14,32.623
		c-7.217,4.985-21.691,6.467-21.691,6.467s-14.688-46.133-18.662-49.364c-3.992-3.256-33.392-31.942-33.392-31.942l-6.723-9.975
		l-8.975-2.001c0,0-11.216-19.467-16.691-24.444c-5.491-4.989-14.705-16.46-14.705-16.46L132.848,76L132.83,76.005z"/>
</g>
<path opacity="0.1" fill="none" stroke="#FFA300" stroke-width="70" stroke-miterlimit="10" d="M-183.784,74.663
	c75.341,302.183,381.373,486.065,683.561,410.731c302.184-75.344,486.071-381.385,410.736-683.57
	c-75.349-302.178-381.388-486.07-683.568-410.728C-75.236-533.563-259.127-227.52-183.784,74.663z"/>
</svg>
